<svg xmlns="http://www.w3.org/2000/svg" viewBox="0 0 3081 753" width="3081" height="753" role="img" aria-label="Dark Star"><path fill="#12100e" fill-rule="evenodd" d="M2469.0,275.0 L2349.0,275.5 L2335.3,268.0 L2331.6,259.0 L2331.4,226.0 L2325.6,199.0 L2322.4,127.0 L2316.6,100.0 L2319.1,75.0 L2313.8,56.0 L2313.5,39.0 L2317.0,30.0 L2473.0,29.0 L2481.2,38.0 L2479.0,83.0 L2485.0,109.5 L2494.0,115.4 L2556.0,115.5 L2594.0,108.6 L2713.0,53.8 L2727.0,51.2 L2774.0,27.8 L2809.0,19.8 L2843.0,19.4 L2854.0,16.5 L2928.0,16.5 L2940.0,19.5 L3005.0,19.6 L3011.4,24.0 L3007.0,31.2 L2948.0,57.6 L2879.0,80.4 L2765.0,125.4 L2745.0,137.0 L2741.1,145.0 L2747.0,151.0 L2872.0,189.0 L2970.0,224.0 L2985.9,225.0 L3012.0,236.0 L3052.0,246.0 L3064.9,255.0 L3064.7,259.0 L3060.0,262.2 L3043.0,265.7 L2986.0,263.5 L2972.0,266.5 L2940.0,266.5 L2927.0,263.5 L2908.0,266.5 L2857.0,266.5 L2827.0,263.2 L2704.0,219.0 L2649.0,203.0 L2580.0,176.0 L2515.0,175.5 L2495.6,181.0 L2488.1,199.0 L2496.4,247.0 L2495.6,261.0 L2485.0,271.6 L2469.0,275.0 Z M2261.0,278.1 L2242.0,272.5 L2135.0,274.6 L2126.0,269.4 L2119.7,261.0 L2117.0,238.1 L2109.3,223.0 L2088.0,212.8 L1909.0,212.5 L1894.0,209.5 L1793.0,209.5 L1778.0,213.5 L1769.6,226.0 L1774.5,265.0 L1771.0,271.2 L1764.0,275.0 L1724.0,275.5 L1712.0,278.5 L1621.0,277.6 L1611.0,270.0 L1604.6,232.0 L1604.4,198.0 L1598.5,155.0 L1596.0,43.0 L1610.0,34.5 L1769.0,34.5 L1785.0,31.5 L1898.0,31.5 L1925.0,34.5 L1937.0,31.5 L2075.0,31.5 L2089.0,28.5 L2111.0,31.5 L2128.0,28.7 L2138.0,31.5 L2191.0,31.6 L2233.0,41.4 L2255.0,53.9 L2265.3,64.0 L2273.4,90.0 L2273.4,136.0 L2267.2,150.0 L2259.0,159.0 L2234.0,170.3 L2228.3,177.0 L2230.7,182.0 L2239.0,187.1 L2266.0,196.7 L2279.0,214.0 L2282.5,229.0 L2282.0,266.9 L2277.0,272.2 L2261.0,278.1 Z M1562.0,278.2 L1405.0,278.4 L1383.0,268.1 L1361.0,248.3 L1328.0,233.8 L1221.0,233.5 L1208.0,230.5 L986.0,230.8 L970.0,238.7 L937.0,268.0 L924.0,272.4 L805.0,269.5 L779.0,272.5 L763.0,270.0 L758.0,264.0 L762.7,254.0 L775.5,241.0 L797.4,225.0 L828.6,194.0 L851.1,180.0 L909.0,134.3 L919.6,121.0 L1016.0,43.8 L1032.0,37.8 L1068.0,37.5 L1079.0,34.5 L1208.0,34.5 L1220.0,37.5 L1277.0,37.8 L1295.0,47.9 L1445.0,170.3 L1491.0,202.7 L1503.0,217.0 L1545.0,244.8 L1565.2,269.0 L1566.4,275.0 L1562.0,278.2 Z M548.0,275.0 L520.0,272.5 L385.0,272.5 L370.0,275.5 L188.0,275.5 L175.0,272.5 L49.0,272.5 L36.0,268.7 L29.5,264.0 L25.6,250.0 L25.5,197.0 L22.5,186.0 L17.4,51.0 L23.0,45.0 L41.0,37.5 L80.0,37.5 L92.0,40.5 L519.0,40.5 L532.0,43.5 L599.0,43.5 L658.0,49.8 L686.0,56.0 L713.0,67.8 L728.0,78.8 L738.6,93.0 L751.4,132.0 L751.4,202.0 L748.0,219.0 L742.4,229.0 L725.0,245.2 L679.0,263.2 L665.0,263.8 L651.0,269.4 L556.0,272.5 L548.0,275.0 Z M2062.0,151.0 L2095.0,145.0 L2109.9,137.0 L2114.2,122.0 L2104.0,99.1 L2082.0,91.5 L2030.0,91.5 L2016.0,88.5 L1911.0,91.5 L1888.0,88.5 L1874.0,91.5 L1774.0,91.6 L1764.0,96.0 L1760.8,101.0 L1760.6,120.0 L1764.4,138.0 L1772.0,147.5 L1788.0,151.2 L1824.0,151.5 L1838.0,148.5 L1896.0,148.5 L1908.0,151.5 L2062.0,151.0 Z M1256.9,184.0 L1263.3,179.0 L1264.1,174.0 L1261.0,165.0 L1248.0,151.6 L1175.0,96.0 L1155.0,91.5 L1141.0,92.4 L1100.0,117.7 L1063.8,151.0 L1049.5,172.0 L1051.1,179.0 L1057.0,181.5 L1256.9,184.0 Z M434.0,215.0 L444.0,212.5 L530.0,214.5 L554.0,212.0 L577.0,202.0 L589.4,181.0 L589.4,141.0 L585.0,125.0 L577.0,114.0 L553.0,101.8 L521.0,97.5 L250.0,97.5 L239.0,100.5 L203.0,100.8 L191.4,111.0 L190.8,187.0 L195.7,203.0 L213.0,214.2 L434.0,215.0 Z M653.0,579.0 L365.0,576.5 L354.0,573.5 L289.0,573.4 L230.0,562.2 L204.2,550.0 L186.0,530.0 L178.6,511.0 L178.8,498.0 L182.0,493.0 L215.0,488.5 L242.0,491.5 L330.0,491.6 L377.0,515.2 L407.0,518.5 L521.0,518.5 L534.0,521.5 L665.0,521.2 L688.1,510.0 L693.9,497.0 L682.0,487.0 L663.0,479.6 L625.0,476.5 L532.0,476.5 L520.0,473.5 L307.0,470.5 L275.0,467.2 L232.0,458.0 L204.6,444.0 L192.7,432.0 L185.8,419.0 L184.5,383.0 L188.8,366.0 L195.8,353.0 L211.0,340.7 L232.0,333.0 L350.0,320.5 L520.0,320.5 L532.0,323.5 L668.0,323.5 L680.0,326.5 L714.0,326.5 L771.0,333.0 L794.0,339.8 L815.0,352.0 L829.7,367.0 L836.0,386.0 L832.7,397.0 L827.0,401.2 L699.0,401.4 L683.0,397.2 L668.0,386.8 L646.0,377.8 L615.0,377.4 L605.0,374.5 L532.0,374.5 L521.0,371.5 L490.0,374.5 L393.0,374.6 L370.0,378.0 L354.0,387.0 L354.7,399.0 L375.0,413.4 L461.0,413.5 L471.0,416.4 L521.0,416.5 L533.0,419.5 L632.0,419.5 L643.0,422.5 L686.0,422.5 L696.0,425.4 L772.0,428.8 L817.0,438.8 L839.0,451.7 L850.0,466.0 L857.4,491.0 L857.0,519.0 L848.0,539.9 L827.0,556.0 L786.0,570.4 L734.0,576.5 L661.0,576.5 L653.0,579.0 Z M2318.0,594.1 L2295.0,588.1 L2285.8,572.0 L2285.4,523.0 L2276.5,447.0 L2276.4,400.0 L2270.5,372.0 L2270.8,348.0 L2276.0,342.0 L2334.0,341.5 L2346.0,338.5 L2482.0,338.5 L2494.0,335.5 L2583.0,335.5 L2610.0,338.5 L2622.0,335.5 L2761.0,332.5 L2772.0,329.5 L2869.0,329.5 L2917.0,342.0 L2943.0,355.0 L2951.1,363.0 L2961.0,383.0 L2961.4,421.0 L2958.0,441.0 L2952.2,453.0 L2944.0,464.0 L2915.0,475.7 L2908.3,482.0 L2912.0,487.6 L2958.0,508.0 L2966.2,522.0 L2973.2,576.0 L2970.0,581.0 L2956.0,588.0 L2927.0,585.5 L2822.0,587.6 L2807.0,579.0 L2802.0,549.0 L2790.0,532.5 L2775.0,525.0 L2756.0,521.8 L2597.0,524.5 L2583.0,521.5 L2535.0,521.5 L2526.0,524.0 L2502.0,521.6 L2467.0,524.8 L2453.1,533.0 L2451.6,551.0 L2457.2,578.0 L2452.0,585.4 L2443.0,590.6 L2327.0,591.5 L2318.0,594.1 Z M1282.0,591.2 L1139.0,588.5 L1125.0,584.0 L1118.5,571.0 L1118.5,491.0 L1115.5,478.0 L1117.7,413.0 L1114.0,407.6 L1102.0,399.4 L1089.0,395.5 L887.0,395.0 L878.0,390.3 L870.0,381.0 L868.0,342.0 L887.0,333.0 L904.0,332.5 L918.0,335.5 L1191.0,335.5 L1221.0,341.5 L1236.0,338.5 L1279.0,341.5 L1511.0,338.5 L1528.0,347.5 L1535.2,360.0 L1535.2,383.0 L1530.2,396.0 L1517.0,401.2 L1356.0,401.5 L1326.0,398.5 L1299.0,401.8 L1291.0,405.8 L1283.5,428.0 L1286.5,440.0 L1292.5,579.0 L1290.0,585.4 L1282.0,591.2 Z M1584.0,594.0 L1471.0,591.5 L1448.0,594.5 L1437.0,590.0 L1433.9,584.0 L1468.0,548.6 L1546.0,482.4 L1564.0,462.8 L1578.0,453.2 L1694.0,346.7 L1703.0,342.0 L1737.0,335.5 L1774.0,338.5 L1797.0,335.5 L1814.0,337.7 L1895.0,335.5 L1906.0,338.4 L1951.0,339.4 L1968.0,349.7 L1990.5,369.0 L2000.0,381.3 L2055.0,421.7 L2065.6,435.0 L2100.4,461.0 L2168.0,521.0 L2236.0,572.7 L2240.5,582.0 L2238.9,589.0 L2233.0,591.5 L2081.0,591.4 L2052.0,576.1 L2036.1,559.0 L2011.0,545.6 L1908.0,545.5 L1892.0,542.5 L1863.0,545.5 L1847.0,542.9 L1836.0,545.5 L1701.0,545.5 L1690.0,542.7 L1658.0,549.4 L1640.6,560.0 L1622.0,581.5 L1610.0,590.0 L1584.0,594.0 Z M1935.0,494.0 L1944.0,489.2 L1946.3,484.0 L1942.1,474.0 L1933.5,465.0 L1862.0,405.9 L1846.0,396.4 L1830.0,392.5 L1804.6,401.0 L1734.0,468.5 L1725.3,485.0 L1729.0,490.6 L1745.0,494.5 L1818.0,494.5 L1831.0,491.5 L1935.0,494.0 Z M2599.0,464.0 L2607.0,461.5 L2706.0,461.0 L2772.0,455.2 L2782.0,450.3 L2792.0,440.0 L2796.2,417.0 L2784.0,401.9 L2766.0,395.5 L2718.0,395.5 L2706.0,398.5 L2596.0,398.5 L2585.0,395.7 L2574.0,398.5 L2466.0,398.5 L2447.0,402.4 L2440.0,413.0 L2436.5,429.0 L2440.0,448.0 L2444.7,457.0 L2453.0,464.0 L2580.0,461.5 L2599.0,464.0 Z M584.0,720.0 L529.0,720.5 L518.0,717.5 L455.0,716.2 L445.6,710.0 L440.0,700.0 L437.8,652.0 L447.0,641.7 L469.0,636.5 L527.0,641.5 L563.0,639.5 L619.0,642.6 L644.3,655.0 L649.0,662.1 L652.5,686.0 L644.2,706.0 L631.0,714.2 L584.0,720.0 Z M215.0,720.0 L200.0,720.2 L192.0,716.7 L185.4,710.0 L186.0,703.0 L241.0,650.7 L265.0,639.5 L321.0,639.6 L336.0,644.7 L393.0,690.6 L403.5,708.0 L399.0,717.0 L373.0,717.5 L328.0,702.8 L289.0,702.5 L279.0,705.4 L245.0,705.8 L215.0,720.0 Z M843.0,720.0 L749.0,720.5 L706.0,713.6 L694.5,706.0 L686.4,694.0 L686.0,660.0 L698.0,647.0 L714.0,642.6 L848.0,642.5 L864.0,646.0 L877.9,660.0 L877.0,665.0 L871.0,669.9 L838.0,669.4 L802.0,660.6 L761.0,660.5 L746.0,664.8 L737.0,672.0 L738.0,686.0 L756.0,699.2 L813.0,699.4 L842.0,690.8 L862.0,690.5 L883.5,700.0 L883.6,707.0 L877.0,713.6 L843.0,720.0 Z M1259.0,728.2 L1206.0,723.5 L1116.0,722.2 L1105.0,716.2 L1100.8,708.0 L1101.8,697.0 L1112.4,681.0 L1101.4,668.0 L1101.4,659.0 L1109.0,652.0 L1137.0,645.5 L1255.0,651.6 L1268.0,655.8 L1281.3,668.0 L1283.4,676.0 L1281.2,682.0 L1261.0,695.6 L1233.0,699.8 L1228.6,704.0 L1233.0,708.2 L1256.0,708.8 L1278.7,716.0 L1274.0,725.0 L1259.0,728.2 Z M1497.0,729.0 L1386.0,729.5 L1375.0,726.6 L1337.0,726.0 L1329.4,719.0 L1327.0,707.0 L1339.7,687.0 L1330.0,678.0 L1326.0,666.0 L1343.0,655.0 L1367.0,651.5 L1394.0,654.5 L1425.0,651.5 L1436.0,654.5 L1480.0,654.6 L1494.0,658.0 L1504.6,668.0 L1504.6,683.0 L1493.1,695.0 L1475.0,702.8 L1471.6,707.0 L1475.0,711.0 L1487.0,711.8 L1500.4,717.0 L1504.2,724.0 L1497.0,729.0 Z M2964.0,729.2 L2942.0,729.4 L2934.6,725.0 L2929.0,715.0 L2925.0,687.0 L2918.0,679.4 L2907.0,676.3 L2883.0,687.2 L2862.0,687.5 L2855.0,684.0 L2854.4,677.0 L2862.0,669.8 L2896.0,654.8 L2933.0,653.0 L2965.0,658.5 L2973.2,670.0 L2976.5,714.0 L2974.3,721.0 L2964.0,729.2 Z M1686.0,735.0 L1639.0,732.5 L1616.0,735.5 L1606.0,732.6 L1573.0,732.4 L1558.0,728.6 L1547.8,717.0 L1549.7,711.0 L1555.0,707.3 L1583.0,708.8 L1612.0,717.3 L1661.0,714.2 L1665.2,709.0 L1660.0,705.6 L1631.1,705.0 L1620.8,697.0 L1623.0,692.0 L1634.0,688.0 L1657.0,686.5 L1659.4,683.0 L1656.0,679.0 L1607.0,675.5 L1561.0,684.4 L1546.1,674.0 L1545.4,668.0 L1556.0,661.0 L1578.0,657.5 L1609.0,660.3 L1626.0,657.5 L1640.0,660.5 L1656.0,657.5 L1666.0,660.4 L1696.0,660.6 L1709.0,664.8 L1721.0,675.0 L1718.6,698.0 L1724.0,708.1 L1724.0,718.0 L1714.0,728.6 L1686.0,735.0 Z M1911.0,735.0 L1882.0,732.7 L1872.0,735.5 L1814.0,735.5 L1776.0,728.2 L1771.0,724.8 L1770.1,720.0 L1780.0,711.0 L1781.2,706.0 L1771.1,697.0 L1767.4,689.0 L1767.5,672.0 L1784.0,661.0 L1817.0,657.5 L1893.0,657.5 L1905.0,663.2 L1925.0,664.8 L1937.0,673.5 L1942.6,683.0 L1943.2,714.0 L1928.0,731.0 L1911.0,735.0 Z M2767.0,735.0 L2667.0,735.5 L2645.0,728.6 L2640.6,719.0 L2647.0,711.8 L2675.0,711.6 L2696.0,717.4 L2724.0,717.5 L2745.0,712.2 L2752.0,713.7 L2755.2,709.0 L2752.0,706.3 L2745.0,707.8 L2718.0,702.0 L2714.6,694.0 L2724.4,684.0 L2719.0,679.0 L2699.0,678.6 L2651.0,687.4 L2639.8,682.0 L2636.0,671.5 L2665.0,660.8 L2693.0,660.4 L2703.0,657.5 L2761.0,657.5 L2796.5,662.0 L2810.6,674.0 L2811.8,696.0 L2819.5,719.0 L2813.0,725.6 L2794.0,732.0 L2767.0,735.0 Z M572.0,699.0 L585.0,695.6 L600.0,684.0 L600.6,676.0 L593.0,668.0 L580.0,663.6 L543.0,663.4 L520.0,658.3 L500.0,662.0 L491.0,675.0 L492.0,687.0 L505.0,696.0 L529.0,699.5 L572.0,699.0 Z M2548.0,738.0 L2451.0,738.5 L2433.0,732.2 L2425.3,724.0 L2429.7,708.0 L2421.8,693.0 L2422.4,673.0 L2438.0,663.5 L2518.0,663.5 L2540.0,660.5 L2576.0,664.4 L2582.2,673.0 L2573.2,680.0 L2572.6,684.0 L2590.2,693.0 L2600.6,707.0 L2601.0,715.0 L2583.0,731.2 L2548.0,738.0 Z M304.9,684.0 L311.3,676.0 L306.0,667.8 L299.0,664.0 L288.0,664.4 L276.5,676.0 L277.2,680.0 L283.0,684.0 L304.9,684.0 Z M1214.9,678.0 L1218.4,674.0 L1216.0,669.6 L1200.0,663.5 L1164.0,663.8 L1146.6,674.0 L1153.0,678.5 L1214.9,678.0 Z M2337.0,738.0 L2249.0,738.5 L2208.0,734.2 L2195.8,725.0 L2198.5,711.0 L2192.6,695.0 L2193.4,671.0 L2207.0,663.5 L2239.0,663.5 L2252.0,666.5 L2268.0,663.5 L2351.0,664.4 L2354.9,672.0 L2347.0,681.0 L2346.5,686.0 L2367.4,701.0 L2373.2,716.0 L2360.0,731.7 L2337.0,738.0 Z M1397.4,686.0 L1439.0,684.2 L1444.8,677.0 L1441.0,673.0 L1424.0,669.8 L1394.0,669.5 L1372.8,679.0 L1376.1,684.0 L1397.4,686.0 Z M1866.0,690.0 L1884.0,687.0 L1887.2,682.0 L1879.0,676.4 L1870.0,675.5 L1831.0,675.6 L1822.7,682.0 L1825.0,686.5 L1839.0,690.2 L1866.0,690.0 Z M2070.0,717.0 L2036.0,714.0 L2029.1,710.0 L2028.0,704.0 L2032.0,700.0 L2050.0,696.5 L2113.0,696.6 L2122.5,704.0 L2121.0,709.2 L2111.0,714.2 L2070.0,717.0 Z M2307.0,723.0 L2321.3,712.0 L2319.0,707.0 L2310.0,702.8 L2261.0,702.5 L2250.0,705.4 L2241.0,703.0 L2227.3,710.0 L2231.0,715.5 L2247.0,723.2 L2307.0,723.0 Z M2541.9,720.0 L2546.6,716.0 L2547.0,711.0 L2537.0,702.6 L2480.0,702.6 L2466.0,706.0 L2462.6,710.0 L2466.9,716.0 L2477.0,720.4 L2541.9,720.0 Z M1865.9,717.0 L1869.4,713.0 L1866.0,709.0 L1854.0,708.8 L1849.8,712.0 L1853.0,717.0 L1865.9,717.0 Z"/></svg>