<svg xmlns="http://www.w3.org/2000/svg" viewBox="0 0 312 210" width="312" height="210" role="img" aria-label="Dark Star"><g transform="translate(6.00,74.80) scale(0.9436,-0.9436)"><path d="M28.0,58.7 L28.0,14.2 L34.7,14.2 Q46.2,14.2 52.3,19.9 Q58.4,25.6 58.4,36.5 Q58.4,47.4 52.3,53.0 Q46.3,58.7 34.7,58.7 L28.0,58.7 Z M9.2,72.9 L29.0,72.9 Q45.6,72.9 53.7,70.5 Q61.9,68.2 67.7,62.5 Q72.8,57.6 75.3,51.1 Q77.8,44.7 77.8,36.5 Q77.8,28.3 75.3,21.8 Q72.8,15.3 67.7,10.4 Q61.8,4.7 53.6,2.4 Q45.4,0.0 29.0,0.0 L9.2,0.0 L9.2,72.9 Z M136.4,13.3 L107.0,13.3 L102.4,0.0 L83.5,0.0 L110.5,72.9 L132.9,72.9 L159.9,0.0 L141.0,0.0 L136.4,13.3 Z M111.7,26.8 L131.7,26.8 L121.7,55.8 L111.7,26.8 Z M196.3,40.6 Q202.2,40.6 204.8,42.8 Q207.3,45.0 207.3,50.0 Q207.3,55.0 204.8,57.1 Q202.2,59.3 196.3,59.3 L188.4,59.3 L188.4,40.6 L196.3,40.6 Z M188.4,27.6 L188.4,0.0 L169.6,0.0 L169.6,72.9 L198.3,72.9 Q212.7,72.9 219.4,68.1 Q226.1,63.2 226.1,52.8 Q226.1,45.6 222.6,40.9 Q219.1,36.3 212.1,34.1 Q216.0,33.2 219.0,30.1 Q222.1,27.0 225.2,20.7 L235.4,0.0 L215.4,0.0 L206.5,18.1 Q203.8,23.6 201.0,25.6 Q198.3,27.6 193.7,27.6 L188.4,27.6 Z M246.6,72.9 L265.4,72.9 L265.4,46.3 L292.5,72.9 L314.3,72.9 L279.2,38.4 L317.9,0.0 L294.4,0.0 L265.4,28.7 L265.4,0.0 L246.6,0.0 L246.6,72.9 Z" fill="#12100e" stroke="#12100e" stroke-width="3.0" stroke-linejoin="round" stroke-linecap="round"/></g><g transform="translate(6.00,160.52) scale(1.0531,-1.0531)"><path d="M59.9,70.6 L59.9,55.2 Q53.9,57.9 48.2,59.2 Q42.5,60.6 37.4,60.6 Q30.7,60.6 27.4,58.7 Q24.2,56.9 24.2,53.0 Q24.2,50.0 26.4,48.4 Q28.6,46.8 34.3,45.6 L42.3,44.0 Q54.4,41.5 59.6,36.6 Q64.7,31.6 64.7,22.4 Q64.7,10.4 57.5,4.5 Q50.4,-1.4 35.7,-1.4 Q28.8,-1.4 21.8,-0.1 Q14.8,1.2 7.8,3.8 L7.8,19.7 Q14.8,16.0 21.3,14.1 Q27.8,12.2 33.9,12.2 Q40.0,12.2 43.3,14.2 Q46.6,16.3 46.6,20.1 Q46.6,23.5 44.4,25.4 Q42.1,27.2 35.5,28.7 L28.2,30.3 Q17.3,32.7 12.2,37.8 Q7.2,42.9 7.2,51.6 Q7.2,62.5 14.2,68.4 Q21.2,74.2 34.4,74.2 Q40.4,74.2 46.8,73.3 Q53.1,72.4 59.9,70.6 Z M72.5,72.9 L139.7,72.9 L139.7,58.7 L115.5,58.7 L115.5,0.0 L96.7,0.0 L96.7,58.7 L72.5,58.7 L72.5,72.9 Z M185.9,13.3 L156.5,13.3 L151.9,0.0 L133.0,0.0 L160.0,72.9 L182.4,72.9 L209.4,0.0 L190.5,0.0 L185.9,13.3 Z M161.2,26.8 L181.2,26.8 L171.2,55.8 L161.2,26.8 Z M245.8,40.6 Q251.7,40.6 254.2,42.8 Q256.8,45.0 256.8,50.0 Q256.8,55.0 254.2,57.1 Q251.7,59.3 245.8,59.3 L237.9,59.3 L237.9,40.6 L245.8,40.6 Z M237.9,27.6 L237.9,0.0 L219.1,0.0 L219.1,72.9 L247.8,72.9 Q262.2,72.9 268.9,68.1 Q275.6,63.2 275.6,52.8 Q275.6,45.6 272.1,40.9 Q268.6,36.3 261.6,34.1 Q265.4,33.2 268.5,30.1 Q271.5,27.0 274.7,20.7 L284.9,0.0 L264.9,0.0 L256.0,18.1 Q253.3,23.6 250.5,25.6 Q247.8,27.6 243.2,27.6 L237.9,27.6 Z" fill="#12100e" stroke="#12100e" stroke-width="3.0" stroke-linejoin="round" stroke-linecap="round"/></g><g transform="translate(6.00,203.85) scale(0.3489,-0.3489)"><path d="M53.4,13.3 L24.0,13.3 L19.4,0.0 L0.5,0.0 L27.5,72.9 L49.9,72.9 L76.9,0.0 L58.0,0.0 L53.4,13.3 Z M28.7,26.8 L48.7,26.8 L38.7,55.8 L28.7,26.8 Z M105.4,58.7 L105.4,14.2 L112.1,14.2 Q123.6,14.2 129.7,19.9 Q135.8,25.6 135.8,36.5 Q135.8,47.4 129.7,53.0 Q123.7,58.7 112.1,58.7 L105.4,58.7 Z M86.6,72.9 L106.4,72.9 Q123.0,72.9 131.1,70.5 Q139.3,68.2 145.1,62.5 Q150.2,57.6 152.7,51.1 Q155.2,44.7 155.2,36.5 Q155.2,28.3 152.7,21.8 Q150.2,15.3 145.1,10.4 Q139.2,4.7 131.0,2.4 Q122.8,0.0 106.4,0.0 L86.6,0.0 L86.6,72.9 Z M227.4,4.0 Q222.2,1.3 216.6,-0.0 Q211.0,-1.4 204.9,-1.4 Q186.7,-1.4 176.0,8.8 Q165.4,19.0 165.4,36.4 Q165.4,53.9 176.0,64.0 Q186.7,74.2 204.9,74.2 Q211.0,74.2 216.6,72.8 Q222.2,71.5 227.4,68.8 L227.4,53.7 Q222.2,57.3 217.1,58.9 Q212.0,60.6 206.4,60.6 Q196.3,60.6 190.6,54.1 Q184.8,47.7 184.8,36.4 Q184.8,25.1 190.6,18.6 Q196.3,12.2 206.4,12.2 Q212.0,12.2 217.1,13.9 Q222.2,15.5 227.4,19.1 L227.4,4.0 Z M297.4,13.8 L329.5,13.8 L329.5,0.0 L276.5,0.0 L276.5,13.8 L303.1,37.3 Q306.7,40.5 308.4,43.6 Q310.1,46.7 310.1,50.0 Q310.1,55.1 306.7,58.2 Q303.2,61.4 297.5,61.4 Q293.1,61.4 287.9,59.5 Q282.7,57.6 276.7,53.9 L276.7,69.9 Q283.1,72.0 289.3,73.1 Q295.5,74.2 301.4,74.2 Q314.5,74.2 321.8,68.5 Q329.0,62.7 329.0,52.4 Q329.0,46.4 325.9,41.3 Q322.9,36.1 313.0,27.5 L297.4,13.8 Z M367.0,13.8 L399.1,13.8 L399.1,0.0 L346.1,0.0 L346.1,13.8 L372.7,37.3 Q376.3,40.5 378.0,43.6 Q379.7,46.7 379.7,50.0 Q379.7,55.1 376.2,58.2 Q372.8,61.4 367.1,61.4 Q362.7,61.4 357.5,59.5 Q352.2,57.6 346.3,53.9 L346.3,69.9 Q352.6,72.0 358.8,73.1 Q365.0,74.2 371.0,74.2 Q384.1,74.2 391.3,68.5 Q398.6,62.7 398.6,52.4 Q398.6,46.4 395.5,41.3 Q392.4,36.1 382.6,27.5 L367.0,13.8 Z M454.3,39.3 Q461.7,37.4 465.5,32.7 Q469.4,28.0 469.4,20.7 Q469.4,9.9 461.1,4.2 Q452.8,-1.4 436.9,-1.4 Q431.2,-1.4 425.6,-0.5 Q420.0,0.4 414.5,2.2 L414.5,16.7 Q419.7,14.1 424.9,12.7 Q430.1,11.4 435.2,11.4 Q442.6,11.4 446.6,14.0 Q450.6,16.5 450.6,21.4 Q450.6,26.4 446.5,28.9 Q442.4,31.5 434.5,31.5 L427.0,31.5 L427.0,43.6 L434.9,43.6 Q442.0,43.6 445.4,45.8 Q448.9,48.0 448.9,52.6 Q448.9,56.8 445.5,59.1 Q442.1,61.4 436.0,61.4 Q431.5,61.4 426.8,60.3 Q422.2,59.3 417.6,57.3 L417.6,71.1 Q423.1,72.7 428.6,73.4 Q434.1,74.2 439.4,74.2 Q453.6,74.2 460.6,69.5 Q467.7,64.9 467.7,55.5 Q467.7,49.1 464.3,45.0 Q460.9,41.0 454.3,39.3 Z M487.4,1.6 L487.4,15.1 Q491.8,13.0 495.9,11.9 Q500.0,10.9 504.0,10.9 Q512.5,10.9 517.1,15.5 Q521.8,20.2 522.7,29.4 Q519.3,27.0 515.6,25.7 Q511.8,24.5 507.4,24.5 Q496.2,24.5 489.4,31.0 Q482.5,37.5 482.5,48.2 Q482.5,60.0 490.2,67.0 Q497.8,74.1 510.6,74.1 Q524.9,74.1 532.7,64.5 Q540.5,54.9 540.5,37.3 Q540.5,19.2 531.4,8.9 Q522.3,-1.4 506.3,-1.4 Q501.2,-1.4 496.5,-0.7 Q491.8,0.1 487.4,1.6 Z M510.5,36.7 Q515.5,36.7 518.0,39.9 Q520.5,43.1 520.5,49.5 Q520.5,55.9 518.0,59.1 Q515.5,62.3 510.5,62.3 Q505.6,62.3 503.1,59.1 Q500.6,55.9 500.6,49.5 Q500.6,43.1 503.1,39.9 Q505.6,36.7 510.5,36.7 Z M552.3,35.9 L583.0,35.9 L583.0,21.7 L552.3,21.7 L552.3,35.9 Z M599.0,72.9 L645.8,72.9 L645.8,59.1 L614.0,59.1 L614.0,47.8 Q616.2,48.4 618.3,48.7 Q620.5,49.0 622.8,49.0 Q636.2,49.0 643.6,42.4 Q651.0,35.7 651.0,23.8 Q651.0,12.0 642.9,5.3 Q634.9,-1.4 620.5,-1.4 Q614.3,-1.4 608.2,-0.2 Q602.1,1.0 596.1,3.4 L596.1,18.2 Q602.1,14.8 607.4,13.1 Q612.8,11.4 617.5,11.4 Q624.4,11.4 628.3,14.7 Q632.2,18.1 632.2,23.8 Q632.2,29.5 628.3,32.9 Q624.4,36.2 617.5,36.2 Q613.5,36.2 608.9,35.1 Q604.3,34.1 599.0,31.9 L599.0,72.9 Z M668.6,72.9 L715.3,72.9 L715.3,59.1 L683.6,59.1 L683.6,47.8 Q685.7,48.4 687.9,48.7 Q690.1,49.0 692.4,49.0 Q705.8,49.0 713.2,42.4 Q720.6,35.7 720.6,23.8 Q720.6,12.0 712.5,5.3 Q704.4,-1.4 690.1,-1.4 Q683.9,-1.4 677.8,-0.2 Q671.7,1.0 665.7,3.4 L665.7,18.2 Q671.7,14.8 677.0,13.1 Q682.4,11.4 687.1,11.4 Q693.9,11.4 697.9,14.7 Q701.8,18.1 701.8,23.8 Q701.8,29.5 697.9,32.9 Q693.9,36.2 687.1,36.2 Q683.1,36.2 678.5,35.1 Q673.9,34.1 668.6,31.9 L668.6,72.9 Z M774.2,39.3 Q781.5,37.4 785.4,32.7 Q789.2,28.0 789.2,20.7 Q789.2,9.9 780.9,4.2 Q772.6,-1.4 756.7,-1.4 Q751.1,-1.4 745.4,-0.5 Q739.8,0.4 734.3,2.2 L734.3,16.7 Q739.6,14.1 744.7,12.7 Q749.9,11.4 755.0,11.4 Q762.4,11.4 766.4,14.0 Q770.4,16.5 770.4,21.4 Q770.4,26.4 766.3,28.9 Q762.3,31.5 754.3,31.5 L746.8,31.5 L746.8,43.6 L754.7,43.6 Q761.8,43.6 765.2,45.8 Q768.7,48.0 768.7,52.6 Q768.7,56.8 765.3,59.1 Q762.0,61.4 755.8,61.4 Q751.3,61.4 746.6,60.3 Q742.0,59.3 737.4,57.3 L737.4,71.1 Q743.0,72.7 748.4,73.4 Q753.9,74.2 759.2,74.2 Q773.4,74.2 780.4,69.5 Q787.5,64.9 787.5,55.5 Q787.5,49.1 784.1,45.0 Q780.8,41.0 774.2,39.3 Z M808.9,13.0 L825.5,13.0 L825.5,60.1 L808.4,56.6 L808.4,69.4 L825.4,72.9 L843.3,72.9 L843.3,13.0 L859.9,13.0 L859.9,0.0 L808.9,0.0 L808.9,13.0 Z" fill="#12100e" stroke="#12100e" stroke-width="4.5" stroke-linejoin="round" stroke-linecap="round"/></g></svg>